<svg width="366" height="120" viewBox="0 0 366 120" fill="none" xmlns="http://www.w3.org/2000/svg">
<path d="M72.0216 7.65503H43.1267V79.7844H72.0216V7.65503Z" fill="#243746"/>
<path d="M28.8949 50.8895H0V79.7844H28.8949V50.8895Z" fill="#E54360"/>
<path d="M72.0216 79.7844C72.0216 99.6227 55.8491 115.795 36.0108 115.795C16.1725 115.795 0 99.6227 0 79.7844H72.0216Z" fill="#61B0BC"/>
<path d="M128.841 106.739C130.674 108.356 133.261 109.326 135.31 109.326C136.819 109.326 138.113 108.895 138.113 107.709C138.113 106.631 137.251 106.307 135.957 105.876L134.124 105.337C130.889 104.474 128.733 102.857 128.733 99.6227C128.733 95.9569 131.86 93.6927 136.065 93.6927C138.437 93.6927 140.377 94.2318 142.102 95.4178V100.27C140.377 98.8679 138.437 97.8976 136.28 97.8976C134.879 97.8976 133.801 98.4367 133.801 99.5149C133.801 100.485 134.555 100.916 135.849 101.24L138.005 101.887C141.563 102.857 143.181 104.582 143.181 107.601C143.181 111.375 139.838 113.423 135.418 113.423C132.938 113.423 130.35 112.776 128.733 111.483V106.739H128.841Z" fill="#243746"/>
<path d="M156.658 120H151.482V94.2318H156.658V95.7412C157.52 94.7709 159.353 93.8005 161.402 93.8005C166.9 93.8005 170.027 98.3288 170.027 103.612C170.027 108.895 166.9 113.423 161.402 113.423C159.353 113.423 157.52 112.453 156.658 111.482V120ZM156.658 106.739C157.305 108.032 158.706 108.895 160.216 108.895C163.019 108.895 164.744 106.631 164.744 103.612C164.744 100.593 163.019 98.3288 160.216 98.3288C158.706 98.3288 157.305 99.2992 156.658 100.485V106.739Z" fill="#243746"/>
<path d="M188.464 101.24C188.464 99.407 186.954 98.3288 184.259 98.3288C182.318 98.3288 180.593 98.8679 179.083 99.8383V95.31C180.485 94.4474 182.857 93.8005 185.337 93.8005C190.512 93.8005 193.423 96.496 193.423 101.024V112.992H188.356V112.022C187.709 112.668 185.876 113.423 183.827 113.423C180.054 113.423 176.819 111.267 176.819 107.278C176.819 103.72 179.946 101.24 184.151 101.24C185.768 101.24 187.601 101.779 188.356 102.318V101.24H188.464ZM188.464 106.523C188.032 105.553 186.631 104.906 185.121 104.906C183.504 104.906 181.779 105.66 181.779 107.278C181.779 108.895 183.504 109.65 185.121 109.65C186.631 109.65 188.032 109.003 188.464 108.032V106.523Z" fill="#243746"/>
<path d="M213.908 99.2992C213.154 98.8679 212.291 98.6523 211.321 98.6523C209.596 98.6523 208.086 99.6226 207.763 101.348V112.992H202.588V94.2318H207.763V96.0647C208.518 94.6631 210.135 93.8005 211.968 93.8005C212.83 93.8005 213.693 94.0162 213.908 94.124V99.2992Z" fill="#243746"/>
<path d="M225.552 104.798C225.984 107.925 228.248 109.111 230.943 109.111C232.992 109.111 234.501 108.679 236.334 107.493V111.806C234.825 112.992 232.668 113.423 230.189 113.423C224.474 113.423 220.485 109.757 220.485 103.72C220.485 97.7898 224.151 93.6927 229.326 93.6927C234.825 93.6927 237.628 97.4663 237.628 103.073V104.798H225.552ZM225.768 101.456H232.884C232.776 99.407 231.59 98.0054 229.542 98.0054C227.817 97.8976 226.415 99.0836 225.768 101.456Z" fill="#243746"/>
<path d="M251.213 112.992H245.93V85.6064H251.213V95.7412C252.075 94.7709 253.908 93.8005 255.957 93.8005C261.456 93.8005 264.474 98.221 264.474 103.612C264.474 109.003 261.348 113.423 255.957 113.423C253.908 113.423 252.075 112.453 251.213 111.482V112.992ZM251.213 106.739C251.752 108.032 253.154 108.895 254.771 108.895C257.574 108.895 259.299 106.631 259.299 103.612C259.299 100.593 257.574 98.3288 254.771 98.3288C253.261 98.3288 251.86 99.2992 251.213 100.485V106.739Z" fill="#243746"/>
<path d="M282.911 101.24C282.911 99.407 281.402 98.3288 278.706 98.3288C276.765 98.3288 275.04 98.8679 273.531 99.8383V95.31C274.933 94.4474 277.305 93.8005 279.784 93.8005C284.96 93.8005 287.871 96.496 287.871 101.024V112.992H282.803V112.022C282.156 112.668 280.323 113.423 278.275 113.423C274.501 113.423 271.267 111.267 271.267 107.278C271.267 103.72 274.394 101.24 278.598 101.24C280.216 101.24 282.048 101.779 282.803 102.318V101.24H282.911ZM282.911 106.523C282.48 105.553 281.078 104.906 279.569 104.906C277.951 104.906 276.226 105.66 276.226 107.278C276.226 108.895 277.951 109.65 279.569 109.65C281.078 109.65 282.48 109.003 282.911 108.032V106.523Z" fill="#243746"/>
<path d="M296.927 94.2318H302.102V95.9569C303.073 94.7709 305.013 93.8005 307.17 93.8005C311.375 93.8005 313.854 96.6038 313.854 100.809V113.1H308.679V101.779C308.679 99.8383 307.709 98.4367 305.553 98.4367C303.935 98.4367 302.534 99.407 302.102 101.024V112.992H296.927V94.2318Z" fill="#243746"/>
<path d="M341.132 112.992H334.987L328.194 104.367V112.992H322.911V85.6064H328.194V101.671L334.663 94.2318H340.917L333.046 102.857L341.132 112.992Z" fill="#243746"/>
<path d="M127.439 60.9164C127.439 72.0216 121.509 78.5984 109.865 78.5984C108.032 78.5984 105.768 78.4906 104.474 78.0593V66.9542C105.229 67.062 106.523 67.2776 107.493 67.2776C111.59 67.2776 113.423 65.3369 113.423 60.8086V22.5337H127.439V60.9164ZM120.539 15.9569C116.011 15.9569 112.237 12.7224 112.237 7.97844C112.237 3.34232 116.119 0 120.539 0C124.96 0 128.733 3.34232 128.733 7.97844C128.733 12.7224 124.852 15.9569 120.539 15.9569Z" fill="#243746"/>
<path d="M175.526 66.8463C170.997 71.0512 165.391 73.8544 157.628 73.8544C147.493 73.8544 138.976 67.9245 138.976 58.1132C138.976 47.8706 148.14 42.0485 159.353 42.0485H169.596V40.9703C169.272 36.3342 165.175 33.4231 158.491 33.4231C153.315 33.4231 148.787 35.0404 144.798 37.628V25.5525C148.356 23.2884 154.825 21.3477 161.402 21.3477C168.949 21.3477 174.232 23.7196 177.466 27.9245C181.024 23.9353 186.523 21.3477 192.345 21.3477C206.9 21.3477 214.448 31.6981 214.448 46.5768V51.1051H182.103C183.288 59.0835 189.326 62.5336 196.55 62.5336C202.049 62.5336 206.146 61.2398 211.105 58.1132V69.6495C206.9 72.6684 201.186 74.07 194.501 74.07C186.523 73.9622 179.946 71.4824 175.526 66.8463ZM169.488 57.3584V51.2129H160.431C156.011 51.2129 151.806 52.8301 151.806 57.035C151.806 61.2398 155.687 63.0727 159.677 63.0727C164.421 63.0727 167.979 60.9164 169.488 57.3584ZM182.103 42.0485H201.402C201.078 36.7654 197.952 32.4528 192.345 32.4528C187.709 32.4528 183.612 35.3638 182.103 42.0485Z" fill="#243746"/>
<path d="M257.251 36.2265C255.31 35.1483 252.83 34.5014 250.242 34.5014C245.499 34.5014 241.725 36.9812 240.647 41.6173V72.7763H226.631V22.5337H240.647V27.4933C242.803 23.9354 246.9 21.4556 251.86 21.4556C254.232 21.4556 256.388 21.8868 257.143 22.3181V36.2265H257.251Z" fill="#243746"/>
<path d="M275.472 50.8895C276.55 59.0836 282.588 62.5337 290.027 62.5337C295.526 62.5337 299.515 61.2399 304.474 58.1132V69.6496C300.27 72.6685 294.663 74.0701 287.871 74.0701C272.561 74.0701 262.103 64.151 262.103 48.1941C262.103 32.4529 272.022 21.4556 285.714 21.4556C300.377 21.4556 307.925 31.5903 307.925 46.469V50.9973H275.472V50.8895ZM275.903 41.8329H294.987C294.663 36.4421 291.644 32.5607 286.038 32.5607C281.51 32.5607 277.52 35.4717 275.903 41.8329Z" fill="#243746"/>
<path d="M320.108 22.5337H334.124V27.1699C336.819 24.0432 341.779 21.4556 347.601 21.4556C358.922 21.4556 365.391 28.8949 365.391 40V72.8841H351.375V42.9111C351.375 37.6281 348.679 33.9623 343.181 33.9623C338.868 33.9623 335.202 36.5499 334.016 40.9704V72.8841H320V22.5337H320.108Z" fill="#243746"/>
</svg>
